PathFileType	4	(X/Y/Z)	C:/Users/beibeiliu/ov580/test_trc/User2\sequence.14_training_dense_left.trc
DataRate	CameraRate	NumFrames	NumMarkers	Units	OrigDataRate	OrigDataStartFrame	OrigNumFrames
120	120	13	19	mm	120	30	87
Frame#	Time	ThumbCMC			ThumbMCP			ThumbIP			ThumbTip			IndexMCP			IndexPIP			IndexTip			MiddleMCP			MiddlePIP			MiddleTip			RingMCP			RingPIP			RingTip			PinkyMCP			PinkyPIP			PinkyTip			BackHand1			BackHand2			BackHand3	
		X0	Y0	Z0	X1	Y1	Z1	X2	Y2	Z2	X3	Y3	Z3	X4	Y4	Z4	X5	Y5	Z5	X6	Y6	Z6	X7	Y7	Z7	X8	Y8	Z8	X9	Y9	Z9	X10	Y10	Z10	X11	Y11	Z11	X12	Y12	Z12	X13	Y13	Z13	X14	Y14	Z14	X15	Y15	Z15	X16	Y16	Z16	X17	Y17	Z17	X18	Y18	Z18	
29	0.241667	-181.358	-7.52237	-71.0821	-169.786	9.57372	-99.261	-157.353	24.2244	-130.14	-131.948	25.8362	-146.421	-139.196	-37.7331	-138.055	-120.72	-18.4709	-159.815	-110.305	16.078	-151.853	-115.321	-49.2728	-135.151	-97.6852	-19.8698	-148.808	-110.744	8.13258	-120.542	-98.8027	-45.4585	-122.832	-87.3729	-18.163	-130.928	-101.75	-0.750383	-103.754	-89.4376	-44.6298	-100.01	-77.307	-15.7205	-113.49	-96.5238	1.22202	-93.148	-133.353	-58.6827	-67.8477	-146.156	-57.765	-39.285	-168.836	-50.1277	-69.015	
30	0.25	-187.317	-14.1547	-73.4852	-182.929	4.27372	-104.935	-168.281	12.6651	-131.556	-147.192	10.931	-153.431	-162.467	-47.7553	-145.922	-143.502	-34.5835	-164.259	-127.164	0.968112	-161.284	-138.263	-61.3798	-136.971	-118.66	-35.6137	-158.257	-121.817	-5.59218	-133.664	-118.239	-60.2027	-131.22	-104.448	-32.731	-141.772	-120.245	-11.203	-117.721	-104.398	-57.0908	-109.947	-93.4524	-32.7359	-126.703	-107.401	-5.50026	-106.189	-141.097	-69.0516	-71.1422	-152.811	-62.3419	-38.1902	-178.597	-55.9611	-67.5121	
31	0.258333	-195.036	-10.5703	-70.5978	-189.253	7.56443	-104.051	-177.513	10.9753	-132.996	-161.962	9.14065	-159.328	-182.791	-51.3673	-145.142	-169.534	-37.846	-168.928	-148.525	-8.91567	-170.239	-164.639	-66.8915	-145.219	-145.19	-44.4357	-165.657	-138.609	-11.4063	-144.355	-141.38	-70.636	-133.642	-129.306	-50.3921	-152.468	-131.111	-21.2236	-128.06	-124.391	-70.1202	-114.367	-111.24	-46.5364	-137.968	-115.767	-20.8204	-122.107	-159.486	-73.2279	-73.1945	-165.594	-63.5002	-39.9555	-194.803	-51.6953	-68.1381	
32	0.266667	-191.199	-3.62294	-69.8379	-183.265	12.1556	-100.2	-174.598	18.0363	-134.295	-161.479	8.17757	-157.746	-202.084	-41.0051	-140.097	-183.191	-33.4475	-168.927	-155.992	-12.7124	-172.124	-185.065	-63.1312	-143.043	-164.266	-47.7425	-170.371	-145.884	-17.8544	-150.347	-166.939	-71.5541	-138.83	-148.09	-56.6739	-159.195	-138.019	-29.3704	-136.366	-144.518	-78.092	-123.089	-133.446	-56.1606	-145.87	-125.593	-29.9343	-126.306	-174.139	-74.195	-77.0103	-174.155	-64.0335	-42.4002	-197.067	-47.0487	-64.6788	
33	0.275	-177.709	6.2843	-64.5819	-167.007	18.6778	-97.7958	-160.334	21.3477	-134.541	-152.8	12.5319	-155.266	-203.967	-25.0094	-136.656	-188.676	-20.641	-166.149	-156.686	-7.92239	-171.365	-199.986	-46.0015	-144.512	-177.375	-37.9729	-170.335	-147.583	-19.7921	-153.431	-183.927	-61.0763	-142.596	-163.38	-51.5744	-161.212	-141.482	-32.3502	-136.559	-166.003	-76.7666	-131.33	-148.497	-57.6731	-149.85	-127.729	-40.3548	-133.425	-187.857	-64.5475	-78.3675	-181.803	-62.6168	-47.2002	-199.983	-35.6484	-62.7078	
34	0.283333	-156.209	6.10192	-59.7448	-142.153	19.2952	-91.8523	-138.526	22.019	-125.618	-139.146	12.4951	-152.545	-197.99	1.12567	-129.622	-181.336	0.790393	-162.84	-153.193	-1.80297	-170.073	-203.939	-21.2953	-141.251	-178.285	-20.9564	-167.81	-143.378	-17.5793	-147.482	-195.054	-44.827	-139.943	-171.326	-35.9812	-161.755	-143.094	-33.3746	-137.197	-182.575	-65.2453	-127.211	-161.177	-52.032	-153.257	-135.535	-43.5189	-135.596	-194.191	-50.8793	-77.1087	-184.486	-56.0213	-43.2804	-192.454	-22.2546	-58.9604	
35	0.291667	-133.02	-2.00148	-55.2122	-122.282	7.1731	-90.4695	-118.424	11.3681	-121.416	-122.555	6.14958	-149.251	-179.248	19.8825	-123.327	-164.276	19.1925	-156.99	-141.142	3.1954	-166.412	-195.96	-1.93267	-135.476	-172.392	-4.15918	-162.761	-139.249	-18.5138	-147.524	-196.359	-24.8048	-136.192	-172.346	-25.3972	-159.785	-145.658	-34.1164	-139.771	-194.066	-46.4212	-130.154	-168.876	-43.5779	-153.306	-143.218	-51.3629	-140.252	-196.716	-38.1497	-76.0389	-188.477	-48.7398	-43.2111	-177.39	-13.6373	-53.3102	
36	0.3	-117.616	-14.8189	-53.7713	-105.822	-9.29741	-87.7906	-100.089	-4.56126	-119.123	-102.579	-3.15532	-149.823	-157.403	19.917	-120.642	-148.801	18.9788	-150.725	-129.083	-6.02688	-164.86	-178.384	9.26961	-128.007	-161.743	3.08202	-159.588	-137.3	-27.9239	-148.255	-187.695	-13.4547	-130.28	-171.054	-18.7858	-156.581	-142.261	-39.1967	-136.577	-189.961	-33.6957	-126.74	-169.482	-37.8972	-150.041	-144.95	-57.3627	-139.371	-189.884	-31.6625	-71.0873	-184.755	-40.4749	-41.555	-163.298	-11.8263	-51.0902	
37	0.308333	-108.553	-25.617	-54.6293	-93.2627	-23.0001	-87.3022	-85.2495	-21.9844	-117.298	-87.156	-21.1325	-147.423	-136.203	15.6048	-124.959	-125.965	8.95842	-153.612	-110.309	-19.1649	-163.286	-161.715	5.94546	-127.683	-147.613	-5.75918	-159.945	-129.669	-38.265	-146.332	-175.351	-12.7027	-130.998	-154.914	-24.0134	-156.17	-138.196	-51.4395	-134.974	-184.56	-33.9384	-121.929	-165.383	-43.4892	-150.001	-141.859	-60.2354	-139.321	-176.469	-24.9013	-67.8164	-180.005	-37.7083	-39.6249	-147.689	-8.98988	-51.235	
38	0.316667	-102.27	-27.5313	-51.1437	-79.2212	-30.7984	-81.122	-70.2359	-31.8097	-114.553	-75.3426	-38.3211	-139.69	-119.908	7.10346	-123.16	-104.964	-3.51172	-153.917	-96.5188	-35.5739	-160.52	-142.104	0.937324	-131.361	-129.529	-19.6484	-160.776	-113.73	-51.9721	-139.225	-156.775	-18.4021	-135.248	-140.504	-36.623	-155.693	-124.77	-59.2958	-131.647	-168.674	-38.8643	-126.048	-150.89	-55.5968	-147.749	-129.559	-76.3912	-127.396	-169.626	-26.3047	-71.4184	-168.473	-30.898	-40.3671	-138.873	-7.41304	-51.3265	
39	0.325	-98.3176	-20.3436	-47.6979	-75.4935	-27.8934	-72.3618	-59.4083	-33.2227	-107.836	-60.3338	-43.455	-135.893	-108.262	-3.93223	-131.29	-92.91	-16.1786	-151.791	-73.9496	-48.2473	-151.295	-131.347	-16.7265	-140.032	-108.562	-39.7276	-157.353	-93.8573	-62.806	-132.68	-139.761	-34.8047	-136.551	-118.627	-56.4538	-149.275	-104.653	-71.6639	-117.518	-151.007	-55.3279	-128.19	-125.689	-72.9533	-138.523	-110.393	-82.2779	-109.96	-160.73	-27.2924	-75.0711	-165.713	-32.806	-44.0642	-135.271	-6.13867	-53.446	
40	0.333333	-94.6669	-4.10871	-47.3925	-69.3528	-13.0448	-69.1933	-48.1107	-21.4198	-96.6394	-40.8863	-37.5172	-119.935	-99.941	-13.8742	-132.601	-75.5911	-26.3839	-146.18	-53.734	-49.3187	-138.297	-113.864	-33.0426	-138.573	-84.3832	-51.0778	-148.649	-62.1795	-60.3394	-116.819	-119.557	-55.1962	-133.359	-90.3282	-68.4373	-138.125	-76.2369	-68.5224	-101.299	-126.587	-70.0966	-118.678	-95.6563	-84.4996	-122.267	-82.3423	-78.3939	-92.1419	-153.299	-41.6488	-81.7871	-161.029	-37.104	-47.1643	-139.998	-7.92345	-61.1321	
41	0.341667	-103.479	5.83795	-49.1076	-72.6664	-0.541969	-61.776	-42.5554	-9.16525	-88.676	-32.7459	-28.6357	-104.912	-91.4814	-18.8116	-127.468	-64.0793	-28.0449	-138.425	-36.7702	-41.3247	-123.641	-95.2488	-45.4025	-132.786	-59.8017	-53.8321	-134.459	-41.206	-55.9143	-98.846	-97.1033	-67.2903	-122.272	-64.2357	-68.4467	-121.167	-54.024	-58.141	-87.2077	-100.018	-84.3752	-106.379	-66.4579	-82.5519	-100.906	-63.3491	-68.4736	-68.8854	-141.115	-51.7177	-78.6394	-154.573	-43.193	-48.7178	-140.986	-12.3194	-65.0359	
